<?xml version="1.0" encoding="utf-8"?>
<!-- Generator: Adobe Illustrator 24.0.0, SVG Export Plug-In . SVG Version: 6.00 Build 0)  -->
<svg version="1.1" id="Layer_1" xmlns="http://www.w3.org/2000/svg" xmlns:xlink="http://www.w3.org/1999/xlink" x="0px" y="0px"
	 viewBox="0 0 100 100" style="enable-background:new 0 0 100 100;" xml:space="preserve">
<style type="text/css">
	.st0{fill:none;stroke:#000000;stroke-width:3.5;stroke-miterlimit:10;}
</style>
<g>
	<g>
		<path d="M24.65,40.93h2.11c0.98-2.48,2.2-4.19,3.69-5.15c1.48-0.95,3.05-1.43,4.7-1.43c2.25,0,4.21,0.82,5.91,2.47
			s2.54,3.69,2.54,6.15c0,2.38-0.82,4.39-2.46,6.04c-1.64,1.65-3.62,2.47-5.95,2.47c-2.08,0-3.96-0.68-5.64-2.04s-2.61-3.2-2.79-5.5
			h-2.11v7.14h-3.08v-16.3h3.08V40.93z M40.48,42.94c0-1.49-0.51-2.78-1.52-3.89s-2.29-1.66-3.84-1.66c-1.46,0-2.71,0.51-3.77,1.54
			c-1.05,1.03-1.58,2.37-1.58,4.03c0,1.65,0.54,2.98,1.62,3.99c1.08,1.01,2.34,1.52,3.78,1.52c1.47,0,2.72-0.54,3.76-1.61
			S40.48,44.49,40.48,42.94z"/>
		<path d="M46.51,34.77h3.29c1.78,0,3.06,0.16,3.85,0.49c0.79,0.33,1.41,0.86,1.86,1.6s0.68,1.62,0.68,2.64
			c0,1.14-0.3,2.08-0.89,2.84c-0.59,0.75-1.4,1.28-2.42,1.57c-0.6,0.17-1.69,0.25-3.27,0.25v6.9h-3.1V34.77z M49.62,41.14h0.99
			c0.78,0,1.31-0.06,1.62-0.17c0.3-0.11,0.54-0.29,0.71-0.55c0.17-0.26,0.26-0.57,0.26-0.93c0-0.63-0.24-1.09-0.73-1.38
			c-0.35-0.21-1.01-0.32-1.97-0.32h-0.88V41.14z"/>
		<path d="M57.63,34.77h9.01v3.06h-2.97v13.24h-3.15V37.82h-2.89V34.77z"/>
		<path d="M73.74,34.77h3.15l6.27,16.3h-3.23l-1.28-3.36H72l-1.33,3.36h-3.22L73.74,34.77z M75.33,39.09l-2.19,5.6h4.36L75.33,39.09
			z"/>
		<path d="M22.39,62h3.02l3.78,11.37L33,62h3.02l2.73,16.3h-3l-1.75-10.3l-3.46,10.3h-2.73l-3.43-10.3l-1.79,10.3h-3.03L22.39,62z"
			/>
		<path d="M53.1,62v16.3H50V68.1L43.92,78.3h-2.7V62h3.1v10.54L50.49,62H53.1z"/>
		<path d="M56.81,62h3.29c1.78,0,3.06,0.17,3.85,0.49c0.79,0.33,1.41,0.86,1.86,1.6c0.45,0.74,0.68,1.62,0.68,2.64
			c0,1.14-0.3,2.08-0.89,2.84c-0.59,0.75-1.4,1.28-2.42,1.57c-0.6,0.17-1.69,0.25-3.27,0.25v6.9h-3.1V62z M59.92,68.38h0.99
			c0.78,0,1.31-0.06,1.62-0.17c0.3-0.11,0.54-0.29,0.71-0.55c0.17-0.26,0.26-0.56,0.26-0.93c0-0.63-0.24-1.09-0.73-1.38
			c-0.35-0.22-1.01-0.32-1.97-0.32h-0.88V68.38z"/>
		<path d="M74.51,62h3.15l6.27,16.3H80.7l-1.28-3.36h-6.65l-1.33,3.36h-3.22L74.51,62z M76.1,66.32l-2.19,5.6h4.36L76.1,66.32z"/>
	</g>
	<polyline class="st0" points="13.94,72.21 6.09,84.34 94.14,84.34 87.07,73.4 	"/>
	<polyline class="st0" points="41.12,30.2 50.12,16.29 59.12,30.2 	"/>
</g>
</svg>
