<svg xmlns="http://www.w3.org/2000/svg" xmlns:xlink="http://www.w3.org/1999/xlink" version="1.1" id="Слой_1" x="0px" y="0px" viewBox="0 0 255 380" style="enable-background:new 0 0 255 380;" xml:space="preserve">
<g>
    <g>
        <path d="M69.54,66.28h5.02c2.33-5.9,5.24-9.97,8.78-12.26c3.52-2.26,7.26-3.4,11.19-3.4c5.36,0,10.02,1.95,14.07,5.88    c4.05,3.93,6.05,8.78,6.05,14.64c0,5.66-1.95,10.45-5.85,14.38c-3.9,3.93-8.62,5.88-14.16,5.88c-4.95,0-9.42-1.62-13.42-4.86    c-4-3.24-6.21-7.62-6.64-13.09h-5.02v16.99h-7.33V51.65h7.33C69.54,51.65,69.54,66.28,69.54,66.28z M107.22,71.07    c0-3.55-1.21-6.62-3.62-9.26c-2.4-2.64-5.45-3.95-9.14-3.95c-3.47,0-6.45,1.21-8.97,3.67c-2.5,2.45-3.76,5.64-3.76,9.59    c0,3.93,1.29,7.09,3.86,9.5c2.57,2.4,5.57,3.62,9,3.62c3.5,0,6.47-1.29,8.95-3.83S107.22,74.76,107.22,71.07z"/>
        <path d="M121.57,51.62h7.83c4.24,0,7.28,0.38,9.16,1.17c1.88,0.79,3.36,2.05,4.43,3.81c1.07,1.76,1.62,3.86,1.62,6.28    c0,2.71-0.71,4.95-2.12,6.76c-1.4,1.79-3.33,3.05-5.76,3.74c-1.43,0.4-4.02,0.6-7.78,0.6v16.42h-7.38V51.62z M128.97,66.78h2.36    c1.86,0,3.12-0.14,3.86-0.4c0.71-0.26,1.29-0.69,1.69-1.31c0.4-0.62,0.62-1.36,0.62-2.21c0-1.5-0.57-2.59-1.74-3.28    c-0.83-0.5-2.4-0.76-4.69-0.76h-2.09C128.97,58.81,128.97,66.78,128.97,66.78z"/>
        <path d="M148.03,51.62h21.44v7.28h-7.07v31.51h-7.5V58.88h-6.88C148.03,58.88,148.03,51.62,148.03,51.62z"/>
        <path d="M186.38,51.62h7.5l14.92,38.79h-7.69l-3.05-8h-15.83l-3.17,8h-7.66L186.38,51.62z M190.16,61.91l-5.21,13.33h10.38    L190.16,61.91z"/>
        <path d="M64.16,116.43h7.19l9,27.06l9.07-27.06h7.19l6.5,38.79h-7.14l-4.17-24.51l-8.23,24.51h-6.5l-8.16-24.51l-4.26,24.51h-7.21    L64.16,116.43z"/>
        <path d="M137.25,116.43v38.79h-7.38v-24.28l-14.47,24.28h-6.43v-38.79h7.38v25.09l14.68-25.09H137.25z"/>
        <path d="M146.08,116.43h7.83c4.24,0,7.28,0.4,9.16,1.17c1.88,0.79,3.36,2.05,4.43,3.81c1.07,1.76,1.62,3.86,1.62,6.28    c0,2.71-0.71,4.95-2.12,6.76c-1.4,1.79-3.33,3.05-5.76,3.74c-1.43,0.4-4.02,0.6-7.78,0.6v16.42h-7.38V116.43z M153.48,131.62h2.36    c1.86,0,3.12-0.14,3.86-0.4c0.71-0.26,1.29-0.69,1.69-1.31c0.4-0.62,0.62-1.33,0.62-2.21c0-1.5-0.57-2.59-1.74-3.28    c-0.83-0.52-2.4-0.76-4.69-0.76h-2.09C153.48,123.64,153.48,131.62,153.48,131.62z"/>
        <path d="M188.21,116.43h7.5l14.92,38.79h-7.69l-3.05-8h-15.83l-3.17,8h-7.66L188.21,116.43z M191.99,126.71l-5.21,13.33h10.38    L191.99,126.71z"/>
    </g>
    <polygon points="242.55,173.75 17.74,173.75 40.57,138.48 47.54,142.99 33,165.45 227.3,165.45 214.62,145.82 221.59,141.31  "/>
    <polygon points="112.23,43 105.26,38.49 130.16,0 155.07,38.49 148.1,43 130.16,15.28  "/>
</g>
<polygon points="130.21,380 242.58,185.37 17.84,185.37 " />
</svg>